<mxfile host="app.diagrams.net" agent="Mozilla/5.0 (Windows NT 10.0; Win64; x64) AppleWebKit/537.36 (KHTML, like Gecko) Chrome/129.0.0.0 Safari/537.36 Edg/129.0.0.0" version="24.7.17">
  <diagram name="Página-1" id="9ot6pGzmlyVC43E6-rov">
    <mxGraphModel dx="1303" dy="719" grid="1" gridSize="10" guides="1" tooltips="1" connect="1" arrows="1" fold="1" page="1" pageScale="1" pageWidth="827" pageHeight="1169" math="0" shadow="0">
      <root>
        <mxCell id="0" />
        <mxCell id="1" parent="0" />
        <mxCell id="Ke14jWupuQF-Em4xTv0A-1" value="" style="html=1;points=[[0,0,0,0,5],[0,1,0,0,-5],[1,0,0,0,5],[1,1,0,0,-5]];perimeter=orthogonalPerimeter;outlineConnect=0;targetShapes=umlLifeline;portConstraint=eastwest;newEdgeStyle={&quot;curved&quot;:0,&quot;rounded&quot;:0};" vertex="1" parent="1">
          <mxGeometry x="50" y="90" width="10" height="750" as="geometry" />
        </mxCell>
        <mxCell id="Ke14jWupuQF-Em4xTv0A-2" value="1. Solicitud de transacción." style="html=1;verticalAlign=bottom;endArrow=block;curved=0;rounded=0;" edge="1" parent="1">
          <mxGeometry x="0.0462" y="10" relative="1" as="geometry">
            <mxPoint x="60" y="120.00000000000011" as="sourcePoint" />
            <mxPoint x="385" y="120.00000000000011" as="targetPoint" />
            <mxPoint as="offset" />
          </mxGeometry>
        </mxCell>
        <mxCell id="Ke14jWupuQF-Em4xTv0A-3" value="3. Token validado." style="html=1;verticalAlign=bottom;endArrow=open;dashed=1;endSize=8;curved=0;rounded=0;" edge="1" source="Ke14jWupuQF-Em4xTv0A-7" parent="1">
          <mxGeometry relative="1" as="geometry">
            <mxPoint x="395" y="220" as="targetPoint" />
            <mxPoint x="665" y="220" as="sourcePoint" />
          </mxGeometry>
        </mxCell>
        <mxCell id="Ke14jWupuQF-Em4xTv0A-4" value="Cliente" style="shape=umlLifeline;perimeter=lifelinePerimeter;whiteSpace=wrap;html=1;container=1;dropTarget=0;collapsible=0;recursiveResize=0;outlineConnect=0;portConstraint=eastwest;newEdgeStyle={&quot;curved&quot;:0,&quot;rounded&quot;:0};" vertex="1" parent="1">
          <mxGeometry x="5" y="20" width="100" height="80" as="geometry" />
        </mxCell>
        <mxCell id="Ke14jWupuQF-Em4xTv0A-5" value="" style="html=1;points=[[0,0,0,0,5],[0,1,0,0,-5],[1,0,0,0,5],[1,1,0,0,-5]];perimeter=orthogonalPerimeter;outlineConnect=0;targetShapes=umlLifeline;portConstraint=eastwest;newEdgeStyle={&quot;curved&quot;:0,&quot;rounded&quot;:0};" vertex="1" parent="1">
          <mxGeometry x="385" y="90" width="10" height="750" as="geometry" />
        </mxCell>
        <mxCell id="Ke14jWupuQF-Em4xTv0A-6" value="Interfaz Transaccion" style="shape=umlLifeline;perimeter=lifelinePerimeter;whiteSpace=wrap;html=1;container=1;dropTarget=0;collapsible=0;recursiveResize=0;outlineConnect=0;portConstraint=eastwest;newEdgeStyle={&quot;curved&quot;:0,&quot;rounded&quot;:0};" vertex="1" parent="1">
          <mxGeometry x="340" y="20" width="100" height="80" as="geometry" />
        </mxCell>
        <mxCell id="Ke14jWupuQF-Em4xTv0A-7" value="" style="html=1;points=[[0,0,0,0,5],[0,1,0,0,-5],[1,0,0,0,5],[1,1,0,0,-5]];perimeter=orthogonalPerimeter;outlineConnect=0;targetShapes=umlLifeline;portConstraint=eastwest;newEdgeStyle={&quot;curved&quot;:0,&quot;rounded&quot;:0};" vertex="1" parent="1">
          <mxGeometry x="670" y="90" width="10" height="750" as="geometry" />
        </mxCell>
        <mxCell id="Ke14jWupuQF-Em4xTv0A-8" value="Servicio de Autentificación" style="shape=umlLifeline;perimeter=lifelinePerimeter;whiteSpace=wrap;html=1;container=1;dropTarget=0;collapsible=0;recursiveResize=0;outlineConnect=0;portConstraint=eastwest;newEdgeStyle={&quot;curved&quot;:0,&quot;rounded&quot;:0};" vertex="1" parent="1">
          <mxGeometry x="625" y="20" width="100" height="80" as="geometry" />
        </mxCell>
        <mxCell id="Ke14jWupuQF-Em4xTv0A-9" value="" style="html=1;points=[[0,0,0,0,5],[0,1,0,0,-5],[1,0,0,0,5],[1,1,0,0,-5]];perimeter=orthogonalPerimeter;outlineConnect=0;targetShapes=umlLifeline;portConstraint=eastwest;newEdgeStyle={&quot;curved&quot;:0,&quot;rounded&quot;:0};" vertex="1" parent="1">
          <mxGeometry x="945" y="90" width="10" height="750" as="geometry" />
        </mxCell>
        <mxCell id="Ke14jWupuQF-Em4xTv0A-10" value="Servicio de Transacción" style="shape=umlLifeline;perimeter=lifelinePerimeter;whiteSpace=wrap;html=1;container=1;dropTarget=0;collapsible=0;recursiveResize=0;outlineConnect=0;portConstraint=eastwest;newEdgeStyle={&quot;curved&quot;:0,&quot;rounded&quot;:0};" vertex="1" parent="1">
          <mxGeometry x="900" y="20" width="100" height="80" as="geometry" />
        </mxCell>
        <mxCell id="Ke14jWupuQF-Em4xTv0A-11" value="Servicio de Cuenta" style="shape=umlLifeline;perimeter=lifelinePerimeter;whiteSpace=wrap;html=1;container=1;dropTarget=0;collapsible=0;recursiveResize=0;outlineConnect=0;portConstraint=eastwest;newEdgeStyle={&quot;curved&quot;:0,&quot;rounded&quot;:0};" vertex="1" parent="1">
          <mxGeometry x="1190" y="20" width="100" height="80" as="geometry" />
        </mxCell>
        <mxCell id="Ke14jWupuQF-Em4xTv0A-12" value="" style="html=1;points=[[0,0,0,0,5],[0,1,0,0,-5],[1,0,0,0,5],[1,1,0,0,-5]];perimeter=orthogonalPerimeter;outlineConnect=0;targetShapes=umlLifeline;portConstraint=eastwest;newEdgeStyle={&quot;curved&quot;:0,&quot;rounded&quot;:0};" vertex="1" parent="1">
          <mxGeometry x="1235" y="90" width="10" height="750" as="geometry" />
        </mxCell>
        <mxCell id="Ke14jWupuQF-Em4xTv0A-13" value="Base de Datos" style="shape=umlLifeline;perimeter=lifelinePerimeter;whiteSpace=wrap;html=1;container=1;dropTarget=0;collapsible=0;recursiveResize=0;outlineConnect=0;portConstraint=eastwest;newEdgeStyle={&quot;curved&quot;:0,&quot;rounded&quot;:0};" vertex="1" parent="1">
          <mxGeometry x="1490" y="20" width="100" height="80" as="geometry" />
        </mxCell>
        <mxCell id="Ke14jWupuQF-Em4xTv0A-14" value="" style="html=1;points=[[0,0,0,0,5],[0,1,0,0,-5],[1,0,0,0,5],[1,1,0,0,-5]];perimeter=orthogonalPerimeter;outlineConnect=0;targetShapes=umlLifeline;portConstraint=eastwest;newEdgeStyle={&quot;curved&quot;:0,&quot;rounded&quot;:0};" vertex="1" parent="1">
          <mxGeometry x="1535" y="90" width="10" height="750" as="geometry" />
        </mxCell>
        <mxCell id="Ke14jWupuQF-Em4xTv0A-15" value="2. Validad Token" style="html=1;verticalAlign=bottom;endArrow=block;curved=0;rounded=0;" edge="1" parent="1">
          <mxGeometry x="0.0462" y="10" relative="1" as="geometry">
            <mxPoint x="395" y="160.0000000000001" as="sourcePoint" />
            <mxPoint x="670" y="160" as="targetPoint" />
            <mxPoint as="offset" />
          </mxGeometry>
        </mxCell>
        <mxCell id="Ke14jWupuQF-Em4xTv0A-16" value="4. Ejecutar transacción" style="html=1;verticalAlign=bottom;endArrow=block;curved=0;rounded=0;" edge="1" parent="1" target="Ke14jWupuQF-Em4xTv0A-9">
          <mxGeometry x="-0.4727" relative="1" as="geometry">
            <mxPoint x="395" y="270.0000000000001" as="sourcePoint" />
            <mxPoint x="670" y="270" as="targetPoint" />
            <mxPoint as="offset" />
          </mxGeometry>
        </mxCell>
        <mxCell id="Ke14jWupuQF-Em4xTv0A-17" value="5. Verificar saldo para transferencia o retiro" style="html=1;verticalAlign=bottom;endArrow=block;curved=0;rounded=0;" edge="1" parent="1" source="Ke14jWupuQF-Em4xTv0A-9">
          <mxGeometry x="-0.0182" y="10" relative="1" as="geometry">
            <mxPoint x="955" y="330" as="sourcePoint" />
            <mxPoint x="1230" y="330" as="targetPoint" />
            <mxPoint as="offset" />
          </mxGeometry>
        </mxCell>
        <mxCell id="Ke14jWupuQF-Em4xTv0A-18" value="6. Saldo suficiente" style="html=1;verticalAlign=bottom;endArrow=open;dashed=1;endSize=8;curved=0;rounded=0;" edge="1" parent="1">
          <mxGeometry x="0.0029" relative="1" as="geometry">
            <mxPoint x="955" y="400" as="targetPoint" />
            <mxPoint x="1230" y="400" as="sourcePoint" />
            <mxPoint as="offset" />
          </mxGeometry>
        </mxCell>
        <mxCell id="Ke14jWupuQF-Em4xTv0A-19" value="7. Actualizar saldo" style="html=1;verticalAlign=bottom;endArrow=block;curved=0;rounded=0;" edge="1" parent="1">
          <mxGeometry x="-0.0182" y="10" relative="1" as="geometry">
            <mxPoint x="955" y="480" as="sourcePoint" />
            <mxPoint x="1230" y="480" as="targetPoint" />
            <mxPoint as="offset" />
          </mxGeometry>
        </mxCell>
        <mxCell id="Ke14jWupuQF-Em4xTv0A-20" value="8. Saldo actualizado" style="html=1;verticalAlign=bottom;endArrow=open;dashed=1;endSize=8;curved=0;rounded=0;" edge="1" parent="1">
          <mxGeometry x="0.0029" relative="1" as="geometry">
            <mxPoint x="955" y="550" as="targetPoint" />
            <mxPoint x="1230" y="550" as="sourcePoint" />
            <mxPoint as="offset" />
          </mxGeometry>
        </mxCell>
        <mxCell id="Ke14jWupuQF-Em4xTv0A-21" value="9. Guardar transacción" style="html=1;verticalAlign=bottom;endArrow=block;curved=0;rounded=0;" edge="1" parent="1" target="Ke14jWupuQF-Em4xTv0A-14">
          <mxGeometry x="-0.3621" y="10" relative="1" as="geometry">
            <mxPoint x="955" y="600" as="sourcePoint" />
            <mxPoint x="1230" y="600" as="targetPoint" />
            <mxPoint as="offset" />
          </mxGeometry>
        </mxCell>
        <mxCell id="Ke14jWupuQF-Em4xTv0A-22" value="10. Transacción guardada" style="html=1;verticalAlign=bottom;endArrow=open;dashed=1;endSize=8;curved=0;rounded=0;" edge="1" parent="1" target="Ke14jWupuQF-Em4xTv0A-9">
          <mxGeometry x="-0.3565" y="-10" relative="1" as="geometry">
            <mxPoint x="1260" y="670" as="targetPoint" />
            <mxPoint x="1535" y="670" as="sourcePoint" />
            <mxPoint as="offset" />
          </mxGeometry>
        </mxCell>
        <mxCell id="Ke14jWupuQF-Em4xTv0A-23" value="11. Exito de transacción" style="html=1;verticalAlign=bottom;endArrow=open;dashed=1;endSize=8;curved=0;rounded=0;" edge="1" parent="1" target="Ke14jWupuQF-Em4xTv0A-5">
          <mxGeometry x="-0.3565" y="-10" relative="1" as="geometry">
            <mxPoint x="465" y="730" as="targetPoint" />
            <mxPoint x="945" y="730" as="sourcePoint" />
            <mxPoint as="offset" />
          </mxGeometry>
        </mxCell>
        <mxCell id="Ke14jWupuQF-Em4xTv0A-24" value="12. Transacción completa" style="html=1;verticalAlign=bottom;endArrow=open;dashed=1;endSize=8;curved=0;rounded=0;" edge="1" parent="1">
          <mxGeometry x="0.2" y="-10" relative="1" as="geometry">
            <mxPoint x="60" y="800" as="targetPoint" />
            <mxPoint x="385" y="800" as="sourcePoint" />
            <mxPoint as="offset" />
          </mxGeometry>
        </mxCell>
      </root>
    </mxGraphModel>
  </diagram>
</mxfile>
